<svg xmlns="http://www.w3.org/2000/svg" version="1.1" xmlns:xlink="http://www.w3.org/1999/xlink" xmlns:svgjs="http://svgjs.dev/svgjs" width="1000" height="1000" viewBox="0 0 1000 1000"><rect width="1000" height="1000" fill="#ffffff"></rect><g transform="matrix(0.7,0,0,0.7,149.5757665071689,429.15965108911774)"><svg viewBox="0 0 396 80" data-background-color="#333366" preserveAspectRatio="xMidYMid meet" height="202" width="1000" xmlns="http://www.w3.org/2000/svg" xmlns:xlink="http://www.w3.org/1999/xlink"><defs></defs><g id="tight-bounds" transform="matrix(1,0,0,1,0.2399949473730203,0.07940532440298398)"><svg viewBox="0 0 395.52 79.84118774245333" height="79.84118774245333" width="395.52"><g><svg viewBox="0 0 541.3335851422444 109.2756786069915" height="79.84118774245333" width="395.52"><g><rect width="5.860790022349063" height="105.95471008203225" x="124.61041286243712" y="1.6604842624796277" fill="#000000" opacity="1" stroke-width="0" stroke="transparent" fill-opacity="1" class="rect-o-0" data-fill-palette-color="primary" rx="1%" id="o-0" data-palette-color="#ffffff"></rect></g><g transform="matrix(1,0,0,1,145.81358514224445,1.9240531930319378)"><svg viewBox="0 0 395.52 105.42757222092763" height="105.42757222092763" width="395.52"><g><svg viewBox="0 0 395.52 105.42757222092763" height="105.42757222092763" width="395.52"><g><svg viewBox="0 0 395.52 64.98916559691912" height="64.98916559691912" width="395.52"><g transform="matrix(1,0,0,1,0,0)"><svg width="395.52" viewBox="3.740000009536743 -33.97999954223633 209.17999267578125 34.369998931884766" height="64.98916559691912" data-palette-color="#ffffff"><g class="undefined-text-0" data-fill-palette-color="primary" id="text-0"><path d="M3.74 0L3.74-33.98 7.25-33.98 25-8.91 24.73-12.43 24.73-33.98 29.57-33.98 29.57 0 26.07 0 11.25-20.83 8.3-25.07 8.57-20.83 8.57 0 3.74 0ZM37.08 0L37.08-33.98 59.03-33.98 59.03-29.74 41.97-29.74 41.97-19.73 54.88-19.73 54.88-15.63 41.97-15.63 41.97-4.3 59.03-4.3 59.03 0 37.08 0ZM79.17-3.81L79.17-3.81Q87.18-3.81 87.18-13.65L87.18-13.65 87.18-33.98 92.06-33.98 92.06-13.65Q92.06-6.45 88.42-2.86L88.42-2.86Q85.13 0.39 79.17 0.39L79.17 0.39Q69.97 0.39 67.23-7.2L67.23-7.2Q66.25-9.86 66.25-13.65L66.25-13.65 66.25-33.98 71.14-33.98 71.14-13.65Q71.14-3.81 79.17-3.81ZM107.9 0L107.9-29.69 97.67-29.69 97.67-33.98 123.01-33.98 123.01-29.69 112.79-29.69 112.79 0 107.9 0ZM128.75 0L128.75-33.98 133.63-33.98 133.63-4.3 148.18-4.3 148.18 0 128.75 0ZM150.7 0L165.03-33.98 168.37-33.98 182.7 0 177.62 0 174.18-8.54 159.09-8.54 155.68 0 150.7 0ZM160.68-12.45L172.62-12.45 166.66-27.34 160.68-12.45ZM187.09 0L187.09-33.98 190.61-33.98 208.36-8.91 208.09-12.43 208.09-33.98 212.92-33.98 212.92 0 209.43 0 194.61-20.83 191.66-25.07 191.93-20.83 191.93 0 187.09 0Z" fill="#000000" data-fill-palette-color="primary"></path></g></svg></g></svg></g><g transform="matrix(1,0,0,1,0,80.3315478543774)"><svg viewBox="0 0 232.209792 25.096024366550235" height="25.096024366550235" width="232.209792"><g transform="matrix(1,0,0,1,0,0)"><svg width="232.209792" viewBox="3.8499999046325684 -39.20000076293945 486.6600036621094 52.599998474121094" height="25.096024366550235" data-palette-color="#ff6699"><path d="M5.5-5.4L5.5-5.4 5.5-31.7Q5.5-34.3 3.85-35.15L3.85-35.15Q5.65-37.3 9.25-37.3L9.25-37.3Q13.65-37.3 16.3-32.9L16.3-32.9 30.1-10 30.1-31.7Q30.1-34.3 28.45-35.15L28.45-35.15Q30.25-37.3 33-37.3L33-37.3Q38-37.3 38-31.4L38-31.4 38-5.15Q38-2.3 38.95-0.9L38.95-0.9Q37.4 0.55 34.45 0.55 31.5 0.55 29.25-1.23 27-3 24.4-7.25L24.4-7.25 13.4-25.7 13.4-5.15Q13.4-2.45 15-1.6L15-1.6Q13.1 0.55 10.5 0.55 7.9 0.55 6.7-0.9 5.5-2.35 5.5-5.4ZM58.4-16.55Q59.3-16.65 59.75-17.13 60.2-17.6 60.2-18.95 60.2-20.3 59.42-21.43 58.65-22.55 57.3-22.55 55.95-22.55 54.75-20.85 53.55-19.15 53.15-15.9L53.15-15.9 58.4-16.55ZM59.25-4.9L59.25-4.9Q63.4-4.9 66.2-8.05L66.2-8.05Q67.35-7.55 67.35-5.95L67.35-5.95Q67.35-3.55 64.5-1.5 61.65 0.55 57.8 0.55L57.8 0.55Q51.85 0.55 48.52-2.7 45.2-5.95 45.2-12.03 45.2-18.1 48.85-22.4 52.5-26.7 58.1-26.7L58.1-26.7Q62.4-26.7 65.2-23.93 68-21.15 68-17.6L68-17.6Q68-14.85 66.7-13.65 65.4-12.45 62.25-12.35L62.25-12.35 53-12.1Q53.35-4.9 59.25-4.9ZM97.7-20.75L97.7-20.75 97.7-5.15Q97.7-2.45 99.3-1.6L99.3-1.6Q97.5 0.55 94.75 0.55L94.75 0.55Q90.7 0.55 90-3.5L90-3.5Q87.45 0.55 82.92 0.55 78.4 0.55 75.9-1.75 73.4-4.05 73.4-8.45L73.4-8.45 73.4-21.05Q73.4-23.65 71.7-24.55L71.7-24.55Q73.59-26.7 76.22-26.7 78.84-26.7 80.05-25.25 81.25-23.8 81.25-20.75L81.25-20.75 81.25-9.25Q81.25-5.4 85.15-5.4L85.15-5.4Q88.5-5.4 89.84-9.2L89.84-9.2 89.84-21.05Q89.84-23.65 88.15-24.55L88.15-24.55Q90.05-26.7 92.67-26.7 95.3-26.7 96.5-25.25 97.7-23.8 97.7-20.75ZM113.69-21.35L113.29-21.35 113.29-7.85Q113.29-4.7 115.74-4.7L115.74-4.7Q118.44-4.7 120.74-7.15L120.74-7.15Q121.44-7.15 121.92-6.58 122.39-6 122.39-5.05L122.39-5.05Q122.39-3 119.89-1.23 117.39 0.55 113.72 0.55 110.04 0.55 107.74-1.3 105.44-3.15 105.44-6.95L105.44-6.95 105.44-21.35Q103.64-21.4 102.74-22.23 101.84-23.05 101.84-24.3 101.84-25.55 102.89-26.3L102.89-26.3Q104.09-26.15 105.44-26.15L105.44-26.15 105.44-27.65Q105.44-30.25 103.74-31.15L103.74-31.15Q105.64-33.3 108.27-33.3 110.89-33.3 112.09-31.85 113.29-30.4 113.29-27.35L113.29-27.35 113.29-26.15 120.84-26.15Q121.19-25.75 121.19-25.15L121.19-25.15Q121.19-23.6 119.52-22.48 117.84-21.35 113.69-21.35L113.69-21.35ZM126.89-5.4L126.89-5.4 126.89-21.05Q126.89-23.65 125.19-24.55L125.19-24.55Q127.09-26.7 129.79-26.7L129.79-26.7Q134.24-26.7 134.69-21.9L134.69-21.9Q136.69-26.7 141.34-26.7L141.34-26.7Q143.69-26.7 145.22-25.3 146.74-23.9 146.74-21.55 146.74-19.2 145.56-17.82 144.39-16.45 141.99-16.45L141.99-16.45Q141.69-16.45 140.69-16.55L140.69-16.55Q140.89-17.45 140.89-17.7L140.89-17.7Q140.89-18.95 140.17-19.68 139.44-20.4 138.39-20.4L138.39-20.4Q135.69-20.4 134.74-16.3L134.74-16.3 134.74-5.15Q134.74-2.45 136.39-1.6L136.39-1.6Q134.49 0.55 131.79 0.55L131.79 0.55Q126.89 0.55 126.89-5.4ZM158.14-6.85L158.14-6.85Q158.14-4.4 160.94-4.4L160.94-4.4Q162.99-4.4 164.64-6.3L164.64-6.3 164.64-11.15Q158.14-10.8 158.14-6.85ZM172.49-17.7L172.49-17.7 172.49-6.35Q172.49-3.2 175.19-2.35L175.19-2.35Q174.29-1.1 172.76-0.28 171.24 0.55 169.54 0.55L169.54 0.55Q165.84 0.55 164.94-2.75L164.94-2.75Q161.84 0.55 157.19 0.55L157.19 0.55Q153.74 0.55 151.69-1.15 149.64-2.85 149.64-5.95L149.64-5.95Q149.64-9.75 153.61-12.03 157.59-14.3 164.64-14.4L164.64-14.4 164.64-19.15Q164.64-22.5 161.94-22.5L161.94-22.5Q160.84-22.5 160.11-21.83 159.39-21.15 159.39-20.03 159.39-18.9 160.19-17.95L160.19-17.95Q158.49-16.15 155.91-16.15 153.34-16.15 152.11-17.3 150.89-18.45 150.89-20.3L150.89-20.3Q150.89-23.1 154.31-24.9 157.74-26.7 162.31-26.7 166.89-26.7 169.69-24.55 172.49-22.4 172.49-17.7ZM187.84-33.25L187.84-33.25 187.84-5.15Q187.84-2.45 189.49-1.6L189.49-1.6Q187.59 0.55 184.89 0.55L184.89 0.55Q179.99 0.55 179.99-5.4L179.99-5.4 179.99-33.55Q179.99-36.05 178.29-37.1L178.29-37.1Q180.19-39.2 182.89-39.2L182.89-39.2Q187.84-39.2 187.84-33.25ZM199.83-39.2Q201.78-39.2 203.06-38.02 204.33-36.85 204.33-34.93 204.33-33 202.71-31.4 201.08-29.8 198.98-29.8 196.88-29.8 195.61-31.03 194.33-32.25 194.33-34.25 194.33-36.25 196.11-37.73 197.88-39.2 199.83-39.2ZM203.43-20.75L203.43-20.75 203.43-5.15Q203.43-2.45 205.08-1.6L205.08-1.6Q203.18 0.55 200.48 0.55L200.48 0.55Q195.58 0.55 195.58-5.4L195.58-5.4 195.58-21.05Q195.58-23.65 193.88-24.55L193.88-24.55Q195.78-26.7 198.41-26.7 201.03-26.7 202.23-25.25 203.43-23.8 203.43-20.75ZM229.03-7.25L229.03-7.25Q229.93-6.2 229.93-4.25 229.93-2.3 228.56-1.15 227.18 0 224.13 0L224.13 0 215.78 0Q212.53 0 210.83-1.5 209.13-3 209.13-5.35L209.13-5.35Q209.13-6.75 209.71-7.8 210.28-8.85 211.73-10.15L211.73-10.15 223.43-20.5Q219.23-19.8 215.88-19.8 212.53-19.8 211.13-20.98 209.73-22.15 209.73-23.78 209.73-25.4 210.58-26.5L210.58-26.5Q212.83-26.15 215.38-26.15L215.38-26.15 223.58-26.15Q226.83-26.15 228.53-24.65 230.23-23.15 230.23-20.8L230.23-20.8Q230.23-19.45 229.66-18.4 229.08-17.35 227.63-16L227.63-16 215.73-5.5 224.13-5.95Q227.33-6.1 229.03-7.25ZM247.63-16.55Q248.53-16.65 248.98-17.13 249.43-17.6 249.43-18.95 249.43-20.3 248.65-21.43 247.88-22.55 246.53-22.55 245.18-22.55 243.98-20.85 242.78-19.15 242.38-15.9L242.38-15.9 247.63-16.55ZM248.48-4.9L248.48-4.9Q252.63-4.9 255.43-8.05L255.43-8.05Q256.58-7.55 256.58-5.95L256.58-5.95Q256.58-3.55 253.73-1.5 250.88 0.55 247.03 0.55L247.03 0.55Q241.08 0.55 237.75-2.7 234.43-5.95 234.43-12.03 234.43-18.1 238.08-22.4 241.73-26.7 247.33-26.7L247.33-26.7Q251.63-26.7 254.43-23.93 257.23-21.15 257.23-17.6L257.23-17.6Q257.23-14.85 255.93-13.65 254.63-12.45 251.48-12.35L251.48-12.35 242.23-12.1Q242.58-4.9 248.48-4.9ZM284.47-33.25L284.47-33.25 284.47-5.15Q284.47-2.45 286.12-1.6L286.12-1.6Q284.22 0.55 281.52 0.55L281.52 0.55Q276.62 0.55 276.62-5.4L276.62-5.4 276.62-33.55Q276.62-36.05 274.92-37.1L274.92-37.1Q276.82-39.2 279.52-39.2L279.52-39.2Q284.47-39.2 284.47-33.25ZM298.82-6.85L298.82-6.85Q298.82-4.4 301.62-4.4L301.62-4.4Q303.67-4.4 305.32-6.3L305.32-6.3 305.32-11.15Q298.82-10.8 298.82-6.85ZM313.17-17.7L313.17-17.7 313.17-6.35Q313.17-3.2 315.87-2.35L315.87-2.35Q314.97-1.1 313.45-0.28 311.92 0.55 310.22 0.55L310.22 0.55Q306.52 0.55 305.62-2.75L305.62-2.75Q302.52 0.55 297.87 0.55L297.87 0.55Q294.42 0.55 292.37-1.15 290.32-2.85 290.32-5.95L290.32-5.95Q290.32-9.75 294.3-12.03 298.27-14.3 305.32-14.4L305.32-14.4 305.32-19.15Q305.32-22.5 302.62-22.5L302.62-22.5Q301.52-22.5 300.8-21.83 300.07-21.15 300.07-20.03 300.07-18.9 300.87-17.95L300.87-17.95Q299.17-16.15 296.6-16.15 294.02-16.15 292.8-17.3 291.57-18.45 291.57-20.3L291.57-20.3Q291.57-23.1 295-24.9 298.42-26.7 303-26.7 307.57-26.7 310.37-24.55 313.17-22.4 313.17-17.7ZM344.97-17.7L344.97-17.7 344.97-5.15Q344.97-2.45 346.57-1.6L346.57-1.6Q344.77 0.55 342.02 0.55L342.02 0.55Q337.12 0.55 337.12-5.4L337.12-5.4 337.12-16.55Q337.12-18.35 336.24-19.38 335.37-20.4 333.77-20.4 332.17-20.4 330.67-18.93 329.17-17.45 328.52-14.55L328.52-14.55 328.52-5.15Q328.52-2.45 330.17-1.6L330.17-1.6Q328.27 0.55 325.57 0.55L325.57 0.55Q320.67 0.55 320.67-5.4L320.67-5.4 320.67-21.05Q320.67-23.65 318.97-24.55L318.97-24.55Q320.87-26.7 323.42-26.7 325.97-26.7 327.17-25.43 328.37-24.15 328.52-21.5L328.52-21.5Q329.87-24.05 332.24-25.38 334.62-26.7 337.74-26.7 340.87-26.7 342.92-24.4 344.97-22.1 344.97-17.7ZM362.72-9.7L362.72-9.7Q365.42-9.7 365.42-15.05L365.42-15.05Q365.42-15.75 365.37-16.55L365.37-16.55Q364.97-23.35 362.02-23.35L362.02-23.35Q359.27-23.35 359.27-18L359.27-18Q359.27-17.35 359.32-16.55L359.32-16.55Q359.72-9.7 362.72-9.7ZM368.92 3.9L368.92 3.9 360.97 3.9Q357.07 3.9 354.27 2.27 351.47 0.65 351.47-2.8 351.47-6.25 355.57-8.3L355.57-8.3Q351.22-11.15 351.22-16.55L351.22-16.55Q351.22-21.15 354.47-23.93 357.72-26.7 362.37-26.7L362.37-26.7Q366.02-26.7 368.92-24.9L368.92-24.9Q369.12-28.05 370.52-29.78 371.92-31.5 373.87-31.5 375.82-31.5 376.92-30.3 378.02-29.1 378.02-27.5L378.02-27.5Q378.02-24.95 376.42-24L376.42-24Q375.27-24.85 374.17-24.85L374.17-24.85Q372.02-24.85 371.37-22.75L371.37-22.75Q373.47-20.15 373.47-16.55L373.47-16.55Q373.47-11.95 370.24-9.15 367.02-6.35 362.37-6.35L362.37-6.35Q360.47-6.35 358.67-6.9L358.67-6.9Q357.47-6.4 357.47-5.28 357.47-4.15 358.37-3.78 359.27-3.4 361.47-3.4L361.47-3.4 368.32-3.4Q372.07-3.4 373.84-1.6 375.62 0.2 375.62 3.35L375.62 3.35Q375.62 7.8 371.64 10.6 367.67 13.4 361.19 13.4 354.72 13.4 352.04 11.58 349.37 9.75 349.37 7.3L349.37 7.3Q349.37 5.4 350.79 4.3 352.22 3.2 354.22 3.2L354.22 3.2Q354.27 5.7 356.14 6.75 358.02 7.8 362.07 7.8 366.12 7.8 368.17 7.03 370.22 6.25 370.22 5L370.22 5Q370.22 3.9 368.92 3.9ZM387.31-6.85L387.31-6.85Q387.31-4.4 390.11-4.4L390.11-4.4Q392.16-4.4 393.81-6.3L393.81-6.3 393.81-11.15Q387.31-10.8 387.31-6.85ZM401.66-17.7L401.66-17.7 401.66-6.35Q401.66-3.2 404.36-2.35L404.36-2.35Q403.46-1.1 401.94-0.28 400.41 0.55 398.71 0.55L398.71 0.55Q395.01 0.55 394.11-2.75L394.11-2.75Q391.01 0.55 386.36 0.55L386.36 0.55Q382.91 0.55 380.86-1.15 378.81-2.85 378.81-5.95L378.81-5.95Q378.81-9.75 382.79-12.03 386.76-14.3 393.81-14.4L393.81-14.4 393.81-19.15Q393.81-22.5 391.11-22.5L391.11-22.5Q390.01-22.5 389.29-21.83 388.56-21.15 388.56-20.03 388.56-18.9 389.36-17.95L389.36-17.95Q387.66-16.15 385.09-16.15 382.51-16.15 381.29-17.3 380.06-18.45 380.06-20.3L380.06-20.3Q380.06-23.1 383.49-24.9 386.91-26.7 391.49-26.7 396.06-26.7 398.86-24.55 401.66-22.4 401.66-17.7ZM433.46-20.75L433.46-20.75 433.46-5.15Q433.46-2.45 435.06-1.6L435.06-1.6Q433.26 0.55 430.51 0.55L430.51 0.55Q426.46 0.55 425.76-3.5L425.76-3.5Q423.21 0.55 418.69 0.55 414.16 0.55 411.66-1.75 409.16-4.05 409.16-8.45L409.16-8.45 409.16-21.05Q409.16-23.65 407.46-24.55L407.46-24.55Q409.36-26.7 411.99-26.7 414.61-26.7 415.81-25.25 417.01-23.8 417.01-20.75L417.01-20.75 417.01-9.25Q417.01-5.4 420.91-5.4L420.91-5.4Q424.26-5.4 425.61-9.2L425.61-9.2 425.61-21.05Q425.61-23.65 423.91-24.55L423.91-24.55Q425.81-26.7 428.44-26.7 431.06-26.7 432.26-25.25 433.46-23.8 433.46-20.75ZM451.21-9.7L451.21-9.7Q453.91-9.7 453.91-15.05L453.91-15.05Q453.91-15.75 453.86-16.55L453.86-16.55Q453.46-23.35 450.51-23.35L450.51-23.35Q447.76-23.35 447.76-18L447.76-18Q447.76-17.35 447.81-16.55L447.81-16.55Q448.21-9.7 451.21-9.7ZM457.41 3.9L457.41 3.9 449.46 3.9Q445.56 3.9 442.76 2.27 439.96 0.65 439.96-2.8 439.96-6.25 444.06-8.3L444.06-8.3Q439.71-11.15 439.71-16.55L439.71-16.55Q439.71-21.15 442.96-23.93 446.21-26.7 450.86-26.7L450.86-26.7Q454.51-26.7 457.41-24.9L457.41-24.9Q457.61-28.05 459.01-29.78 460.41-31.5 462.36-31.5 464.31-31.5 465.41-30.3 466.51-29.1 466.51-27.5L466.51-27.5Q466.51-24.95 464.91-24L464.91-24Q463.76-24.85 462.66-24.85L462.66-24.85Q460.51-24.85 459.86-22.75L459.86-22.75Q461.96-20.15 461.96-16.55L461.96-16.55Q461.96-11.95 458.73-9.15 455.51-6.35 450.86-6.35L450.86-6.35Q448.96-6.35 447.16-6.9L447.16-6.9Q445.96-6.4 445.96-5.28 445.96-4.15 446.86-3.78 447.76-3.4 449.96-3.4L449.96-3.4 456.81-3.4Q460.56-3.4 462.33-1.6 464.11 0.2 464.11 3.35L464.11 3.35Q464.11 7.8 460.13 10.6 456.16 13.4 449.68 13.4 443.21 13.4 440.53 11.58 437.86 9.75 437.86 7.3L437.86 7.3Q437.86 5.4 439.28 4.3 440.71 3.2 442.71 3.2L442.71 3.2Q442.76 5.7 444.63 6.75 446.51 7.8 450.56 7.8 454.61 7.8 456.66 7.03 458.71 6.25 458.71 5L458.71 5Q458.71 3.9 457.41 3.9ZM480.91-16.55Q481.81-16.65 482.26-17.13 482.71-17.6 482.71-18.95 482.71-20.3 481.93-21.43 481.16-22.55 479.81-22.55 478.46-22.55 477.26-20.85 476.06-19.15 475.66-15.9L475.66-15.9 480.91-16.55ZM481.76-4.9L481.76-4.9Q485.91-4.9 488.71-8.05L488.71-8.05Q489.86-7.55 489.86-5.95L489.86-5.95Q489.86-3.55 487.01-1.5 484.16 0.55 480.31 0.55L480.31 0.55Q474.36 0.55 471.03-2.7 467.71-5.95 467.71-12.03 467.71-18.1 471.36-22.4 475.01-26.7 480.61-26.7L480.61-26.7Q484.91-26.7 487.71-23.93 490.51-21.15 490.51-17.6L490.51-17.6Q490.51-14.85 489.21-13.65 487.91-12.45 484.76-12.35L484.76-12.35 475.51-12.1Q475.86-4.9 481.76-4.9Z" opacity="1" transform="matrix(1,0,0,1,0,0)" fill="#000000" class="undefined-text-1" data-fill-palette-color="secondary" id="text-1"></path></svg></g></svg></g></svg></g></svg></g><g><svg viewBox="0 0 109.26803060497883 109.2756786069915" height="109.2756786069915" width="109.26803060497883"><g><svg xmlns="http://www.w3.org/2000/svg" xmlns:xlink="http://www.w3.org/1999/xlink" version="1.1" x="0" y="0" viewBox="0 0 99.95500183105469 99.96199798583984" enable-background="new 0 0 99.956 99.962" xml:space="preserve" width="109.26803060497883" height="109.2756786069915" class="icon-icon-0" data-fill-palette-color="accent" id="icon-0"><g fill="#ffffff" data-fill-palette-color="accent"><path d="M49.984 0C22.384 0.008 0.01 22.375 0 49.98c0.01 27.606 22.384 49.975 49.984 49.982 27.605-0.008 49.971-22.376 49.971-49.982C99.956 22.375 77.589 0.008 49.984 0zM8.014 49.98c0.018-8.941 2.838-17.206 7.602-24.007 0.039 3.958 1.506 8.964 6.333 14.757 5.609 6.728 11.495 9.536 20.753 15.144 9.253 5.602 7.846 8.128 5.597 10.655-2.241 2.52-7.564 11.765 0.841 16.818 6.478 3.88 7.581 4.2 6.454 7.564-0.081 0.246-0.17 0.422-0.256 0.649-1.756 0.227-3.533 0.383-5.352 0.388C26.808 91.91 8.057 73.163 8.014 49.98zM68.676 87.493c1.898-2.8 3.933-6.535 5.69-11.436 3.936-10.928 5.891-25.229-1.674-23.546-6.665 1.479-14.855 3.081-18.789 3.638-3.919 0.562-8.688-3.364-14.011-6.165-5.323-2.801-8.409-7.573-4.209-10.654 4.209-3.082 12.614 7.572 15.427 4.208 2.793-3.364 0.844-6.454 4.481-13.736 3.642-7.291 3.989-5.953 6.728-12.055 1.379-3.076 1.111-5.707 0.25-7.791 17.015 5.358 29.349 21.23 29.382 40.023C91.922 66.431 82.445 80.614 68.676 87.493z" fill="#000000" data-fill-palette-color="accent"></path></g></svg></g></svg></g></svg></g></svg><rect width="395.52" height="79.84118774245333" fill="none" stroke="none" visibility="hidden"></rect></g></svg></g></svg>